<svg xmlns="http://www.w3.org/2000/svg" width="275.915" height="72.999" viewBox="0 0 275.915 72.999">
  <g id="Group_1503" data-name="Group 1503" transform="translate(-65.686 -21.494)">
    <text id="Children_s_Book_Bank" data-name="Children’s 
Book Bank" transform="matrix(1, 0, 0, 1, 136.601, 21.494)" fill="#f8f7f4" font-size="32" font-family="Civane-ExtBla, Civane" letter-spacing="-0.04em"><tspan x="0" y="31">Child</tspan><tspan y="31" letter-spacing="-0.02em">r</tspan><tspan y="31">en’s </tspan><tspan x="0" y="63">Book Bank</tspan></text>
    <g id="Group_1271" data-name="Group 1271" transform="translate(-386.925 -275.5)">
      <path id="Path_1160" data-name="Path 1160" d="M478.737,344.159a1.167,1.167,0,0,1-.674-.214c-.367-.257-8.985-6.392-9.629-13.821a10.375,10.375,0,0,1,3.379-8.449c2.756-2.757,5.674-3.916,8.67-3.45,6.269.978,10.389,8.844,10.561,9.178a1.176,1.176,0,1,1-2.09,1.077c-.037-.071-3.752-7.144-8.839-7.933-2.21-.343-4.445.6-6.64,2.79a8.03,8.03,0,0,0-2.7,6.578c.545,6.335,8.558,12.048,8.639,12.105a1.176,1.176,0,0,1-.678,2.137Z" transform="translate(-9.598 -10.402)" fill="#f2f2f2"/>
      <path id="Path_1161" data-name="Path 1161" d="M508.064,331.213a1.176,1.176,0,0,1-1.176-1.176,26.7,26.7,0,0,0-26.666-26.666,25.288,25.288,0,0,0-25.259,25.258v1.407a1.176,1.176,0,1,1-2.352,0V328.63a27.642,27.642,0,0,1,27.611-27.61,29.05,29.05,0,0,1,29.017,29.017A1.176,1.176,0,0,1,508.064,331.213Z" transform="translate(-0.001 0)" fill="#f2f2f2"/>
      <path id="Path_1162" data-name="Path 1162" d="M533.624,344.158a1.176,1.176,0,0,1-.678-2.138c.081-.057,8.094-5.77,8.639-12.105a8.03,8.03,0,0,0-2.7-6.578c-2.2-2.2-4.432-3.134-6.645-2.789-5.1.8-8.8,7.861-8.833,7.932a1.176,1.176,0,1,1-2.09-1.077c.172-.334,4.292-8.2,10.561-9.178,3-.467,5.913.693,8.67,3.45a10.376,10.376,0,0,1,3.38,8.449c-.644,7.428-9.263,13.564-9.629,13.821A1.17,1.17,0,0,1,533.624,344.158Z" transform="translate(-41.699 -10.401)" fill="#f2f2f2"/>
      <path id="Path_1163" data-name="Path 1163" d="M490.487,346.636a1.176,1.176,0,0,1-1.05-.644c-4.7-9.263-14.523-15.476-19.963-18.354a1.176,1.176,0,0,1,1.1-2.079c5.687,3.009,15.971,9.526,20.961,19.369a1.176,1.176,0,0,1-1.048,1.708Z" transform="translate(-9.873 -14.839)" fill="#f2f2f2"/>
      <path id="Path_1134" data-name="Path 1134" d="M526.989,341.259" transform="translate(-45.228 -24.469)" fill="#f2f2f2" stroke="#1a1818" stroke-linecap="round" stroke-linejoin="round" stroke-width="6"/>
      <path id="Path_1135" data-name="Path 1135" d="M560.823,380.156" transform="translate(-65.802 -48.121)" fill="#f2f2f2" stroke="#1a1818" stroke-linecap="round" stroke-linejoin="round" stroke-width="6"/>
      <path id="Path_1164" data-name="Path 1164" d="M490.331,335.384a1.175,1.175,0,0,1-.981-.526c-3.873-5.835-3.639-13.159.678-21.182a47.043,47.043,0,0,1,7.584-10.259,1.176,1.176,0,0,1,1.646,1.679c-.162.16-16.155,16.1-7.949,28.463a1.176,1.176,0,0,1-.979,1.826Z" transform="translate(-20.673 -1.253)" fill="#f2f2f2"/>
      <path id="Path_1165" data-name="Path 1165" d="M522.234,346.528a1.176,1.176,0,0,1-1.053-1.7c4.85-9.8,15.108-16.286,20.791-19.281a1.176,1.176,0,1,1,1.1,2.08c-5.432,2.863-15.224,9.04-19.78,18.244A1.176,1.176,0,0,1,522.234,346.528Z" transform="translate(-41.622 -14.833)" fill="#f2f2f2"/>
      <path id="Path_1166" data-name="Path 1166" d="M522.363,392.221a1.193,1.193,0,0,1-.206-.018,1.175,1.175,0,0,1-.953-1.36,23.238,23.238,0,0,1,4.731-9.649c3.528-4.368,10.342-9.6,22.773-9.729a1.176,1.176,0,1,1,.024,2.352c-9.2.094-16.227,3.044-20.9,8.768a21.3,21.3,0,0,0-4.315,8.667A1.177,1.177,0,0,1,522.363,392.221Z" transform="translate(-41.699 -42.836)" fill="#f2f2f2"/>
      <path id="Path_1167" data-name="Path 1167" d="M480.963,392.223a1.176,1.176,0,0,1-1.157-.971h0a21.3,21.3,0,0,0-4.315-8.667c-4.671-5.724-11.7-8.674-20.9-8.768a1.176,1.176,0,1,1,.024-2.352c12.431.128,19.245,5.362,22.773,9.729a23.235,23.235,0,0,1,4.731,9.649,1.176,1.176,0,0,1-.955,1.361A1.213,1.213,0,0,1,480.963,392.223Z" transform="translate(-0.498 -42.836)" fill="#f2f2f2"/>
      <path id="Path_1168" data-name="Path 1168" d="M537.063,336.013a1.176,1.176,0,0,1-.979-1.826c8.219-12.379-7.669-28.946-7.831-29.112a1.176,1.176,0,0,1,1.684-1.641,48.957,48.957,0,0,1,7.5,10.572c4.262,8.226,4.47,15.654.6,21.481A1.174,1.174,0,0,1,537.063,336.013Z" transform="translate(-45.794 -1.252)" fill="#f2f2f2"/>
      <path id="Path_1169" data-name="Path 1169" d="M480.925,409.258a14.254,14.254,0,0,1-4.737-.808L453.4,400.413a1.176,1.176,0,0,1-.785-1.109v-26.07a1.176,1.176,0,0,1,2.352,0v25.238l22.007,7.76a11.937,11.937,0,0,0,7.911,0l22.007-7.76V373.235a1.176,1.176,0,1,1,2.351,0V399.3a1.176,1.176,0,0,1-.785,1.109l-22.792,8.037A14.254,14.254,0,0,1,480.925,409.258Z" transform="translate(0 -43.198)" fill="#f2f2f2"/>
      <path id="Path_1170" data-name="Path 1170" d="M522.362,410.787a1.176,1.176,0,0,1-1.176-1.176V376.088a1.176,1.176,0,1,1,2.351,0v33.523A1.176,1.176,0,0,1,522.362,410.787Z" transform="translate(-41.699 -44.932)" fill="#f2f2f2"/>
      <path id="Path_1171" data-name="Path 1171" d="M570.832,355.455a1.176,1.176,0,0,1-.576-2.2,50.069,50.069,0,0,1,6.94-3.216,1.176,1.176,0,1,1,.822,2.2,47.618,47.618,0,0,0-6.613,3.064A1.17,1.17,0,0,1,570.832,355.455Z" transform="translate(-71.172 -29.762)" fill="#f2f2f2"/>
      <path id="Path_1172" data-name="Path 1172" d="M463.265,355.443a1.17,1.17,0,0,1-.595-.162,44.392,44.392,0,0,0-6.314-3.066,1.176,1.176,0,1,1,.856-2.19,46.824,46.824,0,0,1,6.65,3.229,1.176,1.176,0,0,1-.6,2.19Z" transform="translate(-1.822 -29.75)" fill="#f2f2f2"/>
    </g>
  </g>
</svg>
